<svg width="133" height="21" viewBox="0 0 133 21" fill="none" xmlns="http://www.w3.org/2000/svg">
<g clip-path="url(#clip0_1089_66)">
<path d="M19.5513 0H0.599995C0.268627 0 0 0.268627 0 0.599995V20.3998C0 20.7312 0.268627 20.9998 0.599995 20.9998H3.59997C3.93134 20.9998 4.19996 20.7312 4.19996 20.3998V11.9999C4.19996 11.6685 4.46859 11.3999 4.79996 11.3999H8.85434C9.33173 11.3999 9.78956 11.2103 10.1271 10.8727L12.7756 8.22419C13.1536 7.84622 12.8859 7.19994 12.3514 7.19994H4.79996C4.46859 7.19994 4.19996 6.93131 4.19996 6.59994V4.79996C4.19996 4.46859 4.46859 4.19996 4.79996 4.19996H16.0543C16.5317 4.19996 16.9895 4.01032 17.3271 3.67276L19.9756 1.02426C20.3535 0.64628 20.0858 0 19.5513 0Z" fill="white"/>
</g>
<g clip-path="url(#clip1_1089_66)">
<path d="M57 0H76C76.5523 0 77 0.447715 77 1V3C77 3.55228 76.5523 4 76 4H61C60.4477 4 60 4.44772 60 5V16C60 16.5523 60.4477 17 61 17H76C76.5523 17 77 17.4477 77 18V20C77 20.5523 76.5523 21 76 21H57C56.4477 21 56 20.5523 56 20V1C56 0.447715 56.4477 0 57 0Z" fill="white"/>
</g>
<g clip-path="url(#clip2_1089_66)">
<path d="M35.2508 10.1512L28.6777 0.948735C28.394 0.551617 28.6779 0 29.1659 0H32.946C33.2315 0 33.5001 0.135457 33.6698 0.365045L38.0174 6.24715C38.2572 6.57163 38.7426 6.57163 38.9824 6.24715L43.3301 0.365045C43.4997 0.135457 43.7683 0 44.0538 0H47.8339C48.3219 0 48.6058 0.551617 48.3222 0.948735L41.749 10.1512C41.6 10.3598 41.6 10.64 41.749 10.8487L48.3222 20.0511C48.6058 20.4482 48.3219 20.9998 47.8339 20.9998H44.0538C43.7683 20.9998 43.4997 20.8644 43.3301 20.6348L38.9824 14.7527C38.7426 14.4282 38.2572 14.4282 38.0174 14.7527L33.6698 20.6348C33.5001 20.8644 33.2315 20.9998 32.946 20.9998H29.1659C28.6779 20.9998 28.394 20.4482 28.6777 20.0511L35.2508 10.8487C35.3998 10.64 35.3998 10.3598 35.2508 10.1512Z" fill="white"/>
</g>
<g clip-path="url(#clip3_1089_66)">
<path d="M104 21H85C84.4477 21 84 20.5523 84 20V18C84 17.4477 84.4477 17 85 17H92C92.5523 17 93 16.5523 93 16V5C93 4.44772 92.5523 4 92 4H85.4254C84.9528 4 84.744 3.40482 85.113 3.10957L89 0H96C96.5523 0 97 0.447715 97 1V16C97 16.5523 97.4477 17 98 17H104C104.552 17 105 17.4477 105 18V20C105 20.5523 104.552 21 104 21Z" fill="#00D1FF"/>
</g>
<g clip-path="url(#clip4_1089_66)">
<path fill-rule="evenodd" clip-rule="evenodd" d="M132 21H113C112.448 21 112 20.5523 112 20V1C112 0.447715 112.448 0 113 0H129H132C132.552 0 133 0.447715 133 1V3C133 3.55228 132.552 4 132 4H129H117C116.448 4 116 4.44772 116 5V7C116 7.55228 116.448 8 117 8H132C132.552 8 133 8.44772 133 9V20C133 20.5523 132.552 21 132 21ZM116 13V16C116 16.5523 116.448 17 117 17H128C128.552 17 129 16.5523 129 16V13C129 12.4477 128.552 12 128 12H117C116.448 12 116 12.4477 116 13Z" fill="#00D1FF"/>
</g>
<defs>
<clipPath id="clip0_1089_66">
<rect width="20.9998" height="20.9998" fill="white"/>
</clipPath>
<clipPath id="clip1_1089_66">
<rect width="21" height="21" fill="white" transform="translate(56)"/>
</clipPath>
<clipPath id="clip2_1089_66">
<rect width="20.9998" height="20.9998" fill="white" transform="translate(28)"/>
</clipPath>
<clipPath id="clip3_1089_66">
<rect width="21" height="21" fill="white" transform="translate(84)"/>
</clipPath>
<clipPath id="clip4_1089_66">
<rect width="21" height="21" fill="white" transform="translate(112)"/>
</clipPath>
</defs>
</svg>
